# xmcd
#
# Track frame offsets:
#	150
#	18592
#	36345
#	49971
#	69570
#	86665
#	103554
#	119610
#	134063
#	153059
#	173146
#	193818
#	220540
#	239908
#
# Disc length: 3369 seconds
#
# Revision: 1
# Processed by: cddbd v1.5.1PL0 Copyright (c) Steve Scherf et al.
# Submitted via: audiograbber 1.83.01
#
DISCID=cf0d270e
DTITLE=Red Hot Cancers and Joe Thomas - Bad Boogie Fever
DYEAR=2001
DGENRE=Blues
TTITLE0=I'll come backno more
TTITLE1=Train to my baby
TTITLE2=Bye, Bye, Baby
TTITLE3=Jellyroll lust
TTITLE4=You've got to love her
TTITLE5=Bad boogie fever
TTITLE6=Passionate pasttime
TTITLE7='57 Thunderbird
TTITLE8=Keep on lovin' me baby
TTITLE9=Let's have a ball
TTITLE10=Last night
TTITLE11=Can't forget
TTITLE12=T-Bone Boogie
TTITLE13=Too hip gotta go
EXTD=
EXTT0=
EXTT1=
EXTT2=
EXTT3=
EXTT4=
EXTT5=
EXTT6=
EXTT7=
EXTT8=
EXTT9=
EXTT10=
EXTT11=
EXTT12=
EXTT13=
PLAYORDER=
